<?xml version="1.0" encoding="iso-8859-1"?>
<!-- Generator: Adobe Illustrator 16.0.0, SVG Export Plug-In . SVG Version: 6.00 Build 0)  -->
<!DOCTYPE svg PUBLIC "-//W3C//DTD SVG 1.1//EN" "http://www.w3.org/Graphics/SVG/1.1/DTD/svg11.dtd">
<svg version="1.1" id="Capa_1" xmlns="http://www.w3.org/2000/svg" xmlns:xlink="http://www.w3.org/1999/xlink" x="0px" y="0px"
	 width="611.999px" height="611.999px" viewBox="0 0 611.999 611.999" style="enable-background:new 0 0 611.999 611.999;"
	 xml:space="preserve">
<g>
	<g>
		<path d="M607.956,246.851l-29.398-41.971c-0.181,0.127-0.352,0.267-0.531,0.391c-33.277,23.318-79.154,15.23-102.466-18.05
			c-23.312-33.274-15.228-79.154,18.053-102.464c0.181-0.127,0.366-0.238,0.547-0.362L464.764,42.43
			c-7.08-10.111-21.022-12.565-31.134-5.485l-116.275,81.45l25.449,36.333l-27.59,19.311l-25.441-36.324L9.536,334.021
			c-10.117,7.074-12.574,21.017-5.485,31.128L147.243,569.57c7.08,10.111,21.023,12.565,31.127,5.479l280.235-196.295
			l-25.131-35.881l27.588-19.322l25.127,35.884l116.282-81.453C612.573,270.895,615.036,256.958,607.956,246.851z M334.834,200.726
			l27.587-19.319l33.026,47.137l-27.6,19.325L334.834,200.726z M415.673,317.458l-30.461-43.479l27.588-19.319l30.457,43.479
			L415.673,317.458z"/>
	</g>
</g>
<g>
</g>
<g>
</g>
<g>
</g>
<g>
</g>
<g>
</g>
<g>
</g>
<g>
</g>
<g>
</g>
<g>
</g>
<g>
</g>
<g>
</g>
<g>
</g>
<g>
</g>
<g>
</g>
<g>
</g>
</svg>
