<?xml version="1.0" encoding="iso-8859-1"?>
<!-- Generator: Adobe Illustrator 16.0.0, SVG Export Plug-In . SVG Version: 6.00 Build 0)  -->
<!DOCTYPE svg PUBLIC "-//W3C//DTD SVG 1.1//EN" "http://www.w3.org/Graphics/SVG/1.1/DTD/svg11.dtd">
<svg version="1.1" id="Capa_1" xmlns="http://www.w3.org/2000/svg" xmlns:xlink="http://www.w3.org/1999/xlink" x="0px" y="0px"
	 width="611.979px" height="611.979px" viewBox="0 0 611.979 611.979" style="enable-background:new 0 0 611.979 611.979;"
	 xml:space="preserve">
<g>
	<path d="M356.781,305.982L601.453,61.311c14.033-14.033,14.033-36.771,0-50.774c-14.004-14.033-36.741-14.033-50.774,0
		L306.007,255.208L61.277,10.536c-14.004-14.033-36.771-14.033-50.774,0c-14.004,14.004-14.004,36.742,0,50.774l244.701,244.672
		L10.503,550.684c-14.004,14.004-14.004,36.771,0,50.774c7.016,7.017,16.216,10.51,25.387,10.51c9.2,0,18.371-3.493,25.387-10.51
		l244.701-244.701l244.671,244.701c7.017,7.017,16.217,10.51,25.388,10.51c9.199,0,18.399-3.493,25.387-10.51
		c14.033-14.033,14.033-36.771,0-50.774L356.781,305.982z"/>
</g>
<g>
</g>
<g>
</g>
<g>
</g>
<g>
</g>
<g>
</g>
<g>
</g>
<g>
</g>
<g>
</g>
<g>
</g>
<g>
</g>
<g>
</g>
<g>
</g>
<g>
</g>
<g>
</g>
<g>
</g>
</svg>
