<?xml version="1.0" encoding="iso-8859-1"?>
<!-- Generator: Adobe Illustrator 16.0.0, SVG Export Plug-In . SVG Version: 6.00 Build 0)  -->
<!DOCTYPE svg PUBLIC "-//W3C//DTD SVG 1.1//EN" "http://www.w3.org/Graphics/SVG/1.1/DTD/svg11.dtd">
<svg version="1.1" id="Capa_1" xmlns="http://www.w3.org/2000/svg" xmlns:xlink="http://www.w3.org/1999/xlink" x="0px" y="0px"
	 width="484.951px" height="484.951px" viewBox="0 0 484.951 484.951" style="enable-background:new 0 0 484.951 484.951;"
	 xml:space="preserve">
<g>
	<g id="_x31_5_38_">
		<g>
			<path d="M118.505,115.332h6.938c10.544,0,19.091-8.55,19.091-19.091V43.558V23.852c0-10.541-8.547-19.09-19.091-19.09h-6.938
				c-10.543,0-19.09,8.549-19.09,19.09v19.707v52.682C99.415,106.782,107.962,115.332,118.505,115.332z"/>
			<path d="M363.373,114.859h6.938c10.543,0,19.09-8.549,19.09-19.091v-57.21v-15.18c0-10.54-8.547-19.089-19.09-19.089h-6.938
				c-10.545,0-19.092,8.549-19.092,19.089v15.18v57.209C344.283,106.31,352.83,114.859,363.373,114.859z"/>
			<path d="M453.916,43.558H404.92v57.209c0,19.084-15.525,29.61-34.607,29.61h-6.938c-19.084,0-34.609-15.526-34.609-34.61V43.558
				H160.053V96.24c0,19.084-15.525,34.61-34.609,34.61h-6.938c-19.083,0-34.608-15.526-34.608-34.61V43.558H31.036
				C13.923,43.558,0,57.481,0,74.595v375.03c0,17.114,13.923,31.037,31.036,31.037h422.88c17.113,0,31.035-13.923,31.035-31.037
				V74.595C484.953,57.482,471.029,43.558,453.916,43.558z M453.916,449.625H31.037l-0.001-283.213h422.886l0.016,283.212
				C453.936,449.624,453.93,449.625,453.916,449.625z"/>
			<path d="M258.498,261.41h55.727c2.209,0,4-1.791,4-4v-48.255c0-2.209-1.791-4-4-4h-55.727c-2.209,0-4,1.791-4,4v48.255
				C254.498,259.619,256.289,261.41,258.498,261.41z"/>
			<path d="M349.443,261.41h55.727c2.209,0,4-1.791,4-4v-48.255c0-2.209-1.791-4-4-4h-55.727c-2.209,0-4,1.791-4,4v48.255
				C345.443,259.619,347.234,261.41,349.443,261.41z"/>
			<path d="M76.611,340.41h55.726c2.209,0,4-1.791,4-4v-48.256c0-2.209-1.791-4-4-4H76.611c-2.209,0-4,1.791-4,4v48.256
				C72.611,338.619,74.402,340.41,76.611,340.41z"/>
			<path d="M167.555,340.41h55.726c2.209,0,4-1.791,4-4v-48.256c0-2.209-1.791-4-4-4h-55.726c-2.209,0-4,1.791-4,4v48.256
				C163.555,338.619,165.346,340.41,167.555,340.41z"/>
			<path d="M258.499,340.41h55.726c2.209,0,4-1.791,4-4v-48.256c0-2.209-1.791-4-4-4h-55.726c-2.209,0-4,1.791-4,4v48.256
				C254.499,338.619,256.29,340.41,258.499,340.41z"/>
			<path d="M349.443,340.41h55.727c2.209,0,4-1.791,4-4v-48.256c0-2.209-1.791-4-4-4h-55.727c-2.209,0-4,1.791-4,4v48.256
				C345.443,338.619,347.234,340.41,349.443,340.41z"/>
			<path d="M132.337,363.154H76.612c-2.209,0-4,1.791-4,4v48.256c0,2.209,1.791,4,4,4h55.726c2.209,0,4-1.791,4-4v-48.256
				C136.337,364.945,134.546,363.154,132.337,363.154z"/>
			<path d="M223.282,363.154h-55.726c-2.209,0-4,1.791-4,4v48.256c0,2.209,1.791,4,4,4h55.726c2.209,0,4-1.791,4-4v-48.256
				C227.282,364.945,225.491,363.154,223.282,363.154z"/>
			<path d="M314.227,363.154H258.5c-2.209,0-4,1.791-4,4v48.256c0,2.209,1.791,4,4,4h55.727c2.209,0,4-1.791,4-4v-48.256
				C318.227,364.945,316.436,363.154,314.227,363.154z"/>
			<path d="M405.17,363.154h-55.727c-2.209,0-4,1.791-4,4v48.256c0,2.209,1.791,4,4,4h55.727c2.209,0,4-1.791,4-4v-48.256
				C409.17,364.945,407.379,363.154,405.17,363.154z"/>
		</g>
	</g>
</g>
<g>
</g>
<g>
</g>
<g>
</g>
<g>
</g>
<g>
</g>
<g>
</g>
<g>
</g>
<g>
</g>
<g>
</g>
<g>
</g>
<g>
</g>
<g>
</g>
<g>
</g>
<g>
</g>
<g>
</g>
</svg>
