<?xml version="1.0" encoding="utf-8"?>
<!-- Generated by IcoMoon.io -->
<!DOCTYPE svg PUBLIC "-//W3C//DTD SVG 1.1//EN" "http://www.w3.org/Graphics/SVG/1.1/DTD/svg11.dtd">
<svg version="1.1" xmlns="http://www.w3.org/2000/svg" xmlns:xlink="http://www.w3.org/1999/xlink" width="512" height="512" viewBox="0 0 512 512">
<g id="icomoon-ignore">
</g>
<path d="M220.118 317.883c-6.655 0-13.308-2.538-18.385-7.615-47.567-47.568-47.567-124.967 0-172.535l96-96c23.044-23.043 53.68-35.733 86.267-35.733s63.224 12.69 86.268 35.732c47.566 47.568 47.566 124.967 0 172.535l-43.883 43.883c-10.154 10.154-26.615 10.154-36.77 0-10.153-10.153-10.153-26.616 0-36.77l43.883-43.883c27.292-27.293 27.292-71.702 0-98.995-13.221-13.221-30.8-20.502-49.498-20.502s-36.276 7.281-49.498 20.503l-96 95.999c-27.293 27.293-27.293 71.703 0 98.996 10.154 10.153 10.153 26.616 0 36.77-5.075 5.076-11.731 7.615-18.384 7.615z"></path>
<path d="M128 506c-32.588 0-63.225-12.69-86.267-35.732-47.567-47.568-47.567-124.967 0-172.535l43.882-43.882c10.154-10.153 26.617-10.153 36.77 0 10.154 10.153 10.154 26.616 0 36.77l-43.882 43.882c-27.293 27.293-27.293 71.703 0 98.996 13.22 13.22 30.799 20.501 49.497 20.501s36.276-7.281 49.499-20.503l96-95.999c27.292-27.293 27.292-71.703 0-98.996-10.154-10.154-10.153-26.616 0-36.77 10.153-10.153 26.616-10.153 36.77 0.001 47.566 47.567 47.566 124.966 0.001 172.534l-96.001 96c-23.045 23.044-53.682 35.733-86.269 35.733z"></path>
</svg>
