<svg xmlns="http://www.w3.org/2000/svg" class="hide"><symbol id="arrow-bottom" viewBox="0 0 201.611 201.611"><path d="M100.809 155.39L0 51.596l5.536-5.375 95.273 98.096 95.276-98.096 5.526 5.375z"/></symbol><symbol id="arrow-left" viewBox="0 0 197.402 197.402"><path d="M146.883 197.402L45.255 98.698 146.883 0l5.265 5.418-96.039 93.28 96.039 93.282z"/></symbol><symbol id="arrow-right" viewBox="0 0 223.413 223.413"><path d="M57.179 223.413l-5.955-6.137L159.925 111.71 51.224 6.127 57.179 0l115.01 111.71z"/></symbol><symbol id="arrow-top" viewBox="0 0 200.387 200.387"><path d="M5.504 154.449L0 149.102 100.197 45.938l100.19 103.164-5.494 5.347-94.696-97.502z"/><path d="M100.197 45.938L0 149.102l5.504 5.347 94.693-97.502 94.696 97.502 5.494-5.347z"/></symbol><symbol id="black" viewBox="0 0 971.986 971.986"><path d="M370.216 459.3c10.2 11.1 15.8 25.6 15.8 40.6v442c0 26.601 32.1 40.101 51.1 21.4l123.3-141.3c16.5-19.8 25.6-29.601 25.6-49.2V500c0-15 5.7-29.5 15.8-40.601L955.615 75.5c26.5-28.8 6.101-75.5-33.1-75.5h-873c-39.2 0-59.7 46.6-33.1 75.5l353.801 383.8z"/></symbol><symbol id="circle" viewBox="0 0 438.549 438.549"><path d="M409.132 114.573c-19.608-33.596-46.205-60.194-79.798-79.8-33.598-19.607-70.277-29.408-110.063-29.408-39.781 0-76.472 9.804-110.063 29.408-33.596 19.605-60.192 46.204-79.8 79.8C9.803 148.168 0 184.854 0 224.63c0 47.78 13.94 90.745 41.827 128.906 27.884 38.164 63.906 64.572 108.063 79.227 5.14.954 8.945.283 11.419-1.996 2.475-2.282 3.711-5.14 3.711-8.562 0-.571-.049-5.708-.144-15.417a2549.81 2549.81 0 0 1-.144-25.406l-6.567 1.136c-4.187.767-9.469 1.092-15.846 1-6.374-.089-12.991-.757-19.842-1.999-6.854-1.231-13.229-4.086-19.13-8.559-5.898-4.473-10.085-10.328-12.56-17.556l-2.855-6.57c-1.903-4.374-4.899-9.233-8.992-14.559-4.093-5.331-8.232-8.945-12.419-10.848l-1.999-1.431c-1.332-.951-2.568-2.098-3.711-3.429-1.142-1.331-1.997-2.663-2.568-3.997-.572-1.335-.098-2.43 1.427-3.289 1.525-.859 4.281-1.276 8.28-1.276l5.708.853c3.807.763 8.516 3.042 14.133 6.851 5.614 3.806 10.229 8.754 13.846 14.842 4.38 7.806 9.657 13.754 15.846 17.847 6.184 4.093 12.419 6.136 18.699 6.136 6.28 0 11.704-.476 16.274-1.423 4.565-.952 8.848-2.383 12.847-4.285 1.713-12.758 6.377-22.559 13.988-29.41-10.848-1.14-20.601-2.857-29.264-5.14-8.658-2.286-17.605-5.996-26.835-11.14-9.235-5.137-16.896-11.516-22.985-19.126-6.09-7.614-11.088-17.61-14.987-29.979-3.901-12.374-5.852-26.648-5.852-42.826 0-23.035 7.52-42.637 22.557-58.817-7.044-17.318-6.379-36.732 1.997-58.24 5.52-1.715 13.706-.428 24.554 3.853 10.85 4.283 18.794 7.952 23.84 10.994 5.046 3.041 9.089 5.618 12.135 7.708 17.705-4.947 35.976-7.421 54.818-7.421s37.117 2.474 54.823 7.421l10.849-6.849c7.419-4.57 16.18-8.758 26.262-12.565 10.088-3.805 17.802-4.853 23.134-3.138 8.562 21.509 9.325 40.922 2.279 58.24 15.036 16.18 22.559 35.787 22.559 58.817 0 16.178-1.958 30.497-5.853 42.966-3.9 12.471-8.941 22.457-15.125 29.979-6.191 7.521-13.901 13.85-23.131 18.986-9.232 5.14-18.182 8.85-26.84 11.136-8.662 2.286-18.415 4.004-29.263 5.146 9.894 8.562 14.842 22.077 14.842 40.539v60.237c0 3.422 1.19 6.279 3.572 8.562 2.379 2.279 6.136 2.95 11.276 1.995 44.163-14.653 80.185-41.062 108.068-79.226 27.88-38.161 41.825-81.126 41.825-128.906-.01-39.771-9.818-76.454-29.414-110.049z"/></symbol><symbol id="close" viewBox="0 0 611.979 611.979"><path d="M356.781 305.982L601.453 61.311c14.033-14.033 14.033-36.771 0-50.774-14.004-14.033-36.741-14.033-50.774 0L306.007 255.208 61.277 10.536c-14.004-14.033-36.771-14.033-50.774 0-14.004 14.004-14.004 36.742 0 50.774l244.701 244.672L10.503 550.684c-14.004 14.004-14.004 36.771 0 50.774 7.016 7.017 16.216 10.51 25.387 10.51 9.2 0 18.371-3.493 25.387-10.51l244.701-244.701 244.671 244.701c7.017 7.017 16.217 10.51 25.388 10.51 9.199 0 18.399-3.493 25.387-10.51 14.033-14.033 14.033-36.771 0-50.774L356.781 305.982z"/></symbol><symbol id="date" viewBox="0 0 484.951 484.951"><path d="M118.505 115.332h6.938c10.544 0 19.091-8.55 19.091-19.091V23.852c0-10.541-8.547-19.09-19.091-19.09h-6.938c-10.543 0-19.09 8.549-19.09 19.09V96.241c0 10.541 8.547 19.091 19.09 19.091zM363.373 114.859h6.938c10.543 0 19.09-8.549 19.09-19.091v-72.39c0-10.54-8.547-19.089-19.09-19.089h-6.938c-10.545 0-19.092 8.549-19.092 19.089V95.767c.002 10.543 8.549 19.092 19.092 19.092z"/><path d="M453.916 43.558H404.92v57.209c0 19.084-15.525 29.61-34.607 29.61h-6.938c-19.084 0-34.609-15.526-34.609-34.61V43.558H160.053V96.24c0 19.084-15.525 34.61-34.609 34.61h-6.938c-19.083 0-34.608-15.526-34.608-34.61V43.558H31.036C13.923 43.558 0 57.481 0 74.595v375.03c0 17.114 13.923 31.037 31.036 31.037h422.88c17.113 0 31.035-13.923 31.035-31.037V74.595c.002-17.113-13.922-31.037-31.035-31.037zm0 406.067H31.037l-.001-283.213h422.886l.016 283.212-.022.001z"/><path d="M258.498 261.41h55.727a4 4 0 0 0 4-4v-48.255a4 4 0 0 0-4-4h-55.727a4 4 0 0 0-4 4v48.255a4 4 0 0 0 4 4zM349.443 261.41h55.727a4 4 0 0 0 4-4v-48.255a4 4 0 0 0-4-4h-55.727a4 4 0 0 0-4 4v48.255a4 4 0 0 0 4 4zM76.611 340.41h55.726a4 4 0 0 0 4-4v-48.256a4 4 0 0 0-4-4H76.611a4 4 0 0 0-4 4v48.256a4 4 0 0 0 4 4zM167.555 340.41h55.726a4 4 0 0 0 4-4v-48.256a4 4 0 0 0-4-4h-55.726a4 4 0 0 0-4 4v48.256a4 4 0 0 0 4 4zM258.499 340.41h55.726a4 4 0 0 0 4-4v-48.256a4 4 0 0 0-4-4h-55.726a4 4 0 0 0-4 4v48.256a4 4 0 0 0 4 4zM349.443 340.41h55.727a4 4 0 0 0 4-4v-48.256a4 4 0 0 0-4-4h-55.727a4 4 0 0 0-4 4v48.256a4 4 0 0 0 4 4zM132.337 363.154H76.612a4 4 0 0 0-4 4v48.256a4 4 0 0 0 4 4h55.726a4 4 0 0 0 4-4v-48.256a4.002 4.002 0 0 0-4.001-4zM223.282 363.154h-55.726a4 4 0 0 0-4 4v48.256a4 4 0 0 0 4 4h55.726a4 4 0 0 0 4-4v-48.256a4 4 0 0 0-4-4zM314.227 363.154H258.5a4 4 0 0 0-4 4v48.256a4 4 0 0 0 4 4h55.727a4 4 0 0 0 4-4v-48.256a4 4 0 0 0-4-4zM405.17 363.154h-55.727a4 4 0 0 0-4 4v48.256a4 4 0 0 0 4 4h55.727a4 4 0 0 0 4-4v-48.256a4 4 0 0 0-4-4z"/></symbol><symbol id="link" viewBox="0 0 512 512"><path d="M220.118 317.883a25.917 25.917 0 0 1-18.385-7.615c-47.567-47.568-47.567-124.967 0-172.535l96-96C320.777 18.69 351.413 6 384 6s63.224 12.69 86.268 35.732c47.566 47.568 47.566 124.967 0 172.535l-43.883 43.883c-10.154 10.154-26.615 10.154-36.77 0-10.153-10.153-10.153-26.616 0-36.77l43.883-43.883c27.292-27.293 27.292-71.702 0-98.995C420.277 65.281 402.698 58 384 58s-36.276 7.281-49.498 20.503l-96 95.999c-27.293 27.293-27.293 71.703 0 98.996 10.154 10.153 10.153 26.616 0 36.77a25.919 25.919 0 0 1-18.384 7.615z"/><path d="M128 506c-32.588 0-63.225-12.69-86.267-35.732-47.567-47.568-47.567-124.967 0-172.535l43.882-43.882c10.154-10.153 26.617-10.153 36.77 0 10.154 10.153 10.154 26.616 0 36.77l-43.882 43.882c-27.293 27.293-27.293 71.703 0 98.996C91.723 446.719 109.302 454 128 454s36.276-7.281 49.499-20.503l96-95.999c27.292-27.293 27.292-71.703 0-98.996-10.154-10.154-10.153-26.616 0-36.77 10.153-10.153 26.616-10.153 36.77.001 47.566 47.567 47.566 124.966.001 172.534l-96.001 96C191.224 493.311 160.587 506 128 506z"/></symbol><symbol id="location" viewBox="0 0 430.114 430.114"><path d="M356.208 107.051c-1.531-5.738-4.64-11.852-6.94-17.205C321.746 23.704 261.611 0 213.055 0 148.054 0 76.463 43.586 66.905 133.427v18.355c0 .766.264 7.647.639 11.089 5.358 42.816 39.143 88.32 64.375 131.136 27.146 45.873 55.314 90.999 83.221 136.106 17.208-29.436 34.354-59.259 51.17-87.933 4.583-8.415 9.903-16.825 14.491-24.857 3.058-5.348 8.9-10.696 11.569-15.672 27.145-49.699 70.838-99.782 70.838-149.104v-20.262c.001-5.347-6.627-24.081-7-25.234zm-141.963 92.142c-19.107 0-40.021-9.554-50.344-35.939-1.538-4.2-1.414-12.617-1.414-13.388v-11.852c0-33.636 28.56-48.932 53.406-48.932 30.588 0 54.245 24.472 54.245 55.06 0 30.587-25.305 55.051-55.893 55.051z"/></symbol><symbol id="price" viewBox="0 0 611.999 611.999"><path d="M607.956 246.851l-29.398-41.971c-.181.127-.352.267-.531.391-33.277 23.318-79.154 15.23-102.466-18.05-23.312-33.274-15.228-79.154 18.053-102.464.181-.127.366-.238.547-.362L464.764 42.43c-7.08-10.111-21.022-12.565-31.134-5.485l-116.275 81.45 25.449 36.333-27.59 19.311-25.441-36.324L9.536 334.021c-10.117 7.074-12.574 21.017-5.485 31.128L147.243 569.57c7.08 10.111 21.023 12.565 31.127 5.479l280.235-196.295-25.131-35.881 27.588-19.322 25.127 35.884 116.282-81.453c10.102-7.087 12.565-21.024 5.485-31.131zm-273.122-46.125l27.587-19.319 33.026 47.137-27.6 19.325-33.013-47.143zm80.839 116.732l-30.461-43.479L412.8 254.66l30.457 43.479-27.584 19.319z"/></symbol><symbol id="search" viewBox="0 0 30.239 30.239"><path d="M20.194 3.46c-4.613-4.613-12.121-4.613-16.734 0-4.612 4.614-4.612 12.121 0 16.735 4.108 4.107 10.506 4.547 15.116 1.34.097.459.319.897.676 1.254l6.718 6.718a2.498 2.498 0 0 0 3.535 0 2.496 2.496 0 0 0 0-3.535l-6.718-6.72a2.5 2.5 0 0 0-1.253-.674c3.209-4.611 2.769-11.008-1.34-15.118zm-2.121 14.614c-3.444 3.444-9.049 3.444-12.492 0-3.442-3.444-3.442-9.048 0-12.492 3.443-3.443 9.048-3.443 12.492 0 3.444 3.444 3.444 9.048 0 12.492z"/></symbol><symbol id="squares" viewBox="0 0 965.199 965.199"><path d="M263.85 30c0-16.6-13.4-30-30-30h-202c-16.6 0-30 13.4-30 30v202.1c0 16.6 13.4 30 30 30h202.1c16.6 0 30-13.4 30-30V30h-.1zM613.55 30c0-16.6-13.4-30-30-30h-202c-16.6 0-30 13.4-30 30v202.1c0 16.6 13.4 30 30 30h202c16.6 0 30-13.4 30-30V30zM963.25 30c0-16.6-13.4-30-30-30h-202c-16.601 0-30 13.4-30 30v202.1c0 16.6 13.399 30 30 30h202.1c16.601 0 30-13.4 30-30V30h-.1zM263.85 381.6c0-16.6-13.4-30-30-30h-202c-16.6 0-30 13.4-30 30v202c0 16.6 13.4 30 30 30h202.1c16.6 0 30-13.4 30-30v-202h-.1zM613.55 381.6c0-16.6-13.4-30-30-30h-202c-16.6 0-30 13.4-30 30v202c0 16.6 13.4 30 30 30h202c16.6 0 30-13.4 30-30v-202zM963.25 381.6c0-16.6-13.4-30-30-30h-202c-16.601 0-30 13.4-30 30v202c0 16.6 13.399 30 30 30h202.1c16.601 0 30-13.4 30-30v-202h-.1zM233.85 703.1h-202c-16.6 0-30 13.4-30 30v202.1c0 16.602 13.4 30 30 30h202.1c16.6 0 30-13.398 30-30V733.1c-.1-16.5-13.5-30-30.1-30zM583.55 703.1h-202c-16.6 0-30 13.4-30 30v202.1c0 16.602 13.4 30 30 30h202c16.6 0 30-13.398 30-30V733.1c0-16.5-13.401-30-30-30zM933.25 703.1h-202c-16.601 0-30 13.4-30 30v202.1c0 16.602 13.399 30 30 30h202.1c16.601 0 30-13.398 30-30V733.1c-.1-16.5-13.5-30-30.1-30z"/></symbol><symbol id="symbols" viewBox="0 0 612 612"><path d="M59.226 88.839C26.513 88.839 0 115.352 0 148.064s26.513 59.226 59.226 59.226 59.226-26.514 59.226-59.226-26.514-59.225-59.226-59.225zm0 157.935C26.513 246.774 0 273.288 0 306c0 32.713 26.513 59.226 59.226 59.226s59.226-26.513 59.226-59.226c0-32.712-26.514-59.226-59.226-59.226zm0 157.936C26.513 404.71 0 431.223 0 463.936c0 32.712 26.513 59.226 59.226 59.226s59.226-26.514 59.226-59.226c0-32.713-26.514-59.226-59.226-59.226zm138.193-217.162h375.096c21.815 0 39.484-17.669 39.484-39.484s-17.669-39.484-39.484-39.484H197.419c-21.815 0-39.484 17.669-39.484 39.484s17.669 39.484 39.484 39.484zm375.097 78.968H197.419c-21.815 0-39.484 17.669-39.484 39.484 0 21.814 17.669 39.484 39.484 39.484h375.096c21.815 0 39.484-17.67 39.484-39.484.001-21.815-17.668-39.484-39.483-39.484zm0 157.935H197.419c-21.815 0-39.484 17.67-39.484 39.484s17.669 39.483 39.484 39.483h375.096c21.815 0 39.484-17.669 39.484-39.483s-17.668-39.484-39.483-39.484z"/></symbol></svg>